# xmcd
#
# Track frame offsets:
#	150
#	11538
#	24878
#	39426
#	52522
#	64808
#	77388
#	90278
#	102480
#	116546
#	130563
#	143906
#	157562
#	170577
#	184076
#	197331
#	211697
#	224354
#
# Disc length: 3164 seconds
#
# Revision: 0
# Processed by: cddbd v1.5.2PL0 Copyright (c) Steve Scherf et al.
# Submitted via: EasyCDDAExtractor 16.0.6.1
#
DISCID=cf0c5a12
DTITLE=Κανακάρης Θεόδωρος - Τραγούδια 45 στροφές-Κανακάρης Θεόδωρος 1
DYEAR=1998
DGENRE=Λαϊκή
TTITLE0=Κανακάρης Θεόδωρος-Διαμάντη Λίτσα - Στο δέντρο που σε φίλησα [1965, Π.
TTITLE0=Τριανταφυλλίδη-Μ. Μποσταντζόγλου]
TTITLE1=Κανακάρης Θεόδωρος-Διαμάντη Λίτσα - Άπλωσε το χεράκι σου [1965, Π. Τρι
TTITLE1=ανταφυλλίδη-Μ. Μποσταντζόγλου]
TTITLE2=Κανακάρης Θεόδωρος - Είμαι απόψε δέκα χρόνια πιο μικρός [1968, Μπάμπη 
TTITLE2=Μπακάλη-Δημ. Γκούτη]
TTITLE3=Κανακάρης Θεόδωρος-Μάριος - Εγώ είμαι ένας παράνομος [1966, Μπάμ. Μπακ
TTITLE3=άλη-Ευτ.Παπαγιαννοπούλου]
TTITLE4=Κανακάρης Θεόδωρος-Καρανικόλα Βάσω - Πάμε αγάπη μου να κάνουμε τρέλλες
TTITLE4=[1966, Μπάμπη Μπακάλη-Δημ. Γκούτη]
TTITLE5=Κανακάρης Θεόδωρος - Μη μού κουνιέσαι βάρκα μου [1966, Μπάμπη Μπακάλη-
TTITLE5=Δημ. Γκούτη]
TTITLE6=Κανακάρης Θεόδωρος-Ντάλμα Ρένα - Δυό φίλοι απ' τον Βόλ [1967, Γ. Κατσα
TTITLE6=ρού-Πυθαγόρα]
TTITLE7=Κανακάρης Θεόδωρος - Γιώργο που ξέρεις τα πολλά [1967, Γ. Κατσαρού-Πυθ
TTITLE7=αγόρα]
TTITLE8=Κανακάρης Θεόδωρος - Στην τράπουλα και στην γυναίκα [1969, Π. Πετσά-Ν.
TTITLE8=Δαλέζιου]
TTITLE9=Κανακάρης Θεόδωρος - Τριάντα νύχτες [Π. Πετσά-Λ. Παπαδόπουλου]
TTITLE10=Κανακάρης Θεόδωρος-χορωδία - Στου Άγιου Νείλου τα νερά [1969, Γρ. Φού
TTITLE10=ντα]
TTITLE11=Κανακάρης Θεόδωρος-χορωδία - Τόσα χρόνια σ' έχω στα δικά μου χέρια [1
TTITLE11=969, Στ. Κηρομύτη-Σαρ. Τσιλιβερδή]
TTITLE12=Κανακάρης Θεόδωρος - Βγήκα γελασμένος [1969, Μπάμπη Μπακάλη-Δημ. Γκού
TTITLE12=τη]
TTITLE13=Κανακάρης Θεόδωρος-Βασιλειάδης Βασίλης - Για μιά πονηρή [1969, Β. Βασ
TTITLE13=ιλειάδη-Κ. Βίρβου]
TTITLE14=Κανακάρης Θεόδωρος-Κούρτη Ρία - Άρπαξε το γέλιο όπου τό βρης [1969, Μ
TTITLE14=πάμπη Μπακάλη-Δημ. Γκούτη]
TTITLE15=Κανακάρης Θεόδωρος - Δίχως να το θέλω [1969, Μπάμπη Μπακάλη-Δημ. Γκού
TTITLE15=τη]
TTITLE16=Κανακάρης Θεόδωρος-Καλάκη Ρούλα - Όποια φουρτούνα κι αν με βρει [1966
TTITLE16=, Μπάμπη Μπακάλη-Φ. Ζησούλη]
TTITLE17=Κανακάρης Θεόδωρος-Λιακοπούλου Νίκη - Όποιος αγαπά, ζηλεύει [1966, Μπ
TTITLE17=άμπη Μπακάλη-Κ. Βίρβου]
EXTD=
EXTT0=
EXTT1=
EXTT2=
EXTT3=
EXTT4=
EXTT5=
EXTT6=
EXTT7=
EXTT8=
EXTT9=
EXTT10=
EXTT11=
EXTT12=
EXTT13=
EXTT14=
EXTT15=
EXTT16=
EXTT17=
PLAYORDER=
